<svg xmlns="http://www.w3.org/2000/svg" width="9" height="14" viewBox="0 0 9 14" fill="none">
  <path fill-rule="evenodd" clip-rule="evenodd" d="M1.86756 0.000171564C2.35253 0.0067156 2.81496 0.200163 3.15312 0.537958L8.46879 5.77217C8.63712 5.93437 8.77071 6.12734 8.86189 6.33995C8.95306 6.55256 9 6.78061 9 7.01093C9 7.24126 8.95306 7.46931 8.86189 7.68192C8.77071 7.89453 8.63712 8.0875 8.46879 8.2497L3.08129 13.4839C2.91434 13.6474 2.71572 13.7772 2.49688 13.8658C2.27804 13.9544 2.04332 14 1.80625 14C1.56918 14 1.33445 13.9544 1.11561 13.8658C0.896772 13.7772 0.698151 13.6474 0.531205 13.4839C0.362884 13.3217 0.229284 13.1287 0.138112 12.9161C0.0469395 12.7035 0 12.4755 0 12.2451C0 12.0148 0.0469395 11.7868 0.138112 11.5742C0.229284 11.3615 0.362884 11.1686 0.531205 11.0064L4.73346 7.01093L0.531205 3.01549C0.193043 2.67769 0.00684899 2.22322 0.0135847 1.75205C0.0203204 1.28088 0.219434 0.831605 0.567122 0.503065C0.91481 0.174524 1.38259 -0.00637247 1.86756 0.000171564Z" fill="white" />
</svg>