<svg width="388" height="195" viewBox="0 0 388 195" fill="none" xmlns="http://www.w3.org/2000/svg">
<path fill-rule="evenodd" clip-rule="evenodd" d="M387.511 151.21C379.974 180.695 287.226 182.969 180.353 156.29C73.4797 129.61 -7.04827 84.0792 0.488738 54.5939C8.02575 25.1085 100.774 22.8341 207.647 49.5138C314.52 76.1935 395.048 121.724 387.511 151.21ZM292.007 87.9856C291.41 88.4869 291.351 91.1218 291.26 95.2314C290.992 107.302 290.442 132.096 275.124 152.92H307.75C307.75 152.92 318.966 151.933 323.044 150.946C327.122 149.959 337.378 145.23 337.378 145.23C370.515 121.049 294.359 86.0116 292.007 87.9856ZM114.175 42.1648C112.048 43.747 92.0601 78.0066 97.8512 109.233L67.0406 93.7481C67.0406 93.7481 57.9209 87.2218 54.9303 84.3092C51.9396 81.3966 45.5841 72.1424 45.5841 72.1424C31.6164 39.2022 95.7448 41.5327 111.098 42.0907C112.712 42.1493 113.787 42.1884 114.175 42.1648Z" fill="white"/>
<path d="M97.751 97.5C97.751 151.348 141.179 195 194.751 195C213.081 195 229.129 190.381 243.751 181.5L244.95 180.945C244.527 181.163 244.125 181.35 243.751 181.5C239.843 183.063 226.468 178.823 214.365 174.986L214.364 174.986C210.982 173.914 207.7 172.873 204.752 172C191.251 168 156.578 150.164 175.751 155C199.594 161.014 233.919 171.421 253.609 175.006C276.795 157.19 291.751 129.101 291.751 97.5C291.751 43.6522 248.323 0 194.751 0C141.179 0 97.751 43.6522 97.751 97.5Z" fill="white"/>
<path d="M77.751 158C77.751 166.837 70.5875 174 61.751 174C52.9144 174 45.751 166.837 45.751 158C45.751 149.163 52.9144 142 61.751 142C70.5875 142 77.751 149.163 77.751 158Z" fill="white"/>
<path d="M98.751 174C98.751 177.314 96.2885 180 93.251 180C90.2134 180 87.751 177.314 87.751 174C87.751 170.686 90.2134 168 93.251 168C96.2885 168 98.751 170.686 98.751 174Z" fill="white"/>
<path d="M326.751 50.5C326.751 55.7467 322.498 60 317.251 60C312.004 60 307.751 55.7467 307.751 50.5C307.751 45.2533 312.004 41 317.251 41C322.498 41 326.751 45.2533 326.751 50.5Z" fill="white"/>
</svg>