<svg width="344" height="273" viewBox="0 0 344 273" fill="none" xmlns="http://www.w3.org/2000/svg">
<path d="M344 13.4664H328.364V27.1368H344V13.4664Z" fill="#C0640E"/>
<path d="M31.2727 40.8072H15.6364V54.4776H31.2727V40.8072Z" fill="#C00E9C"/>
<path d="M78.1818 40.8072H62.5455V54.4776H78.1818V40.8072Z" fill="#595BB1"/>
<path d="M344 54.4776H328.364V68.148H344V54.4776Z" fill="#0EC02C"/>
<path d="M78.1818 95.4888H62.5455V109.159H78.1818V95.4888Z" fill="#0EC02C"/>
<path d="M15.6364 109.159H0V122.83H15.6364V109.159Z" fill="#C0B70E"/>
<path d="M15.6364 150.17H0V163.841H15.6364V150.17Z" fill="#0E96C0"/>
<path d="M328.364 150.17H312.727V163.841H328.364V150.17Z" fill="#595BB1"/>
<path d="M281.455 191.182H265.818V204.852H281.455V191.182Z" fill="#0E96C0"/>
<path d="M15.6364 204.852H0V218.522H15.6364V204.852Z" fill="#0EC02C"/>
<path d="M344 218.522H328.364V232.193H344V218.522Z" fill="#C0B70E"/>
<path d="M15.6364 245.863H0V259.534H15.6364V245.863Z" fill="#C0640E"/>
<path d="M312.727 245.863H297.091V259.534H312.727V245.863Z" fill="#C00E9C"/>
<path d="M171.855 0H156.173V13.65H171.855V0Z" fill="#301C42"/>
<path d="M265.95 0H250.267V13.65H265.95V0Z" fill="#301C42"/>
<path d="M156.173 13.65H140.491V27.3H156.173V13.65Z" fill="#301C42"/>
<path d="M171.855 13.65H156.173V27.3H171.855V13.65Z" fill="#45214D"/>
<path d="M187.538 13.65H171.855V27.3H187.538V13.65Z" fill="#301C42"/>
<path d="M250.267 13.65H234.585V27.3H250.267V13.65Z" fill="#301C42"/>
<path d="M265.95 13.65H250.267V27.3H265.95V13.65Z" fill="#45214D"/>
<path d="M281.632 13.65H265.95V27.3H281.632V13.65Z" fill="#301C42"/>
<path d="M156.173 27.3H140.491V40.95H156.173V27.3Z" fill="#301C42"/>
<path d="M171.855 27.3H156.173V40.95H171.855V27.3Z" fill="#6B2E62"/>
<path d="M187.538 27.3H171.855V40.95H187.538V27.3Z" fill="#301C42"/>
<path d="M250.267 27.3H234.585V40.95H250.267V27.3Z" fill="#301C42"/>
<path d="M265.95 27.3H250.267V40.95H265.95V27.3Z" fill="#6B2E62"/>
<path d="M281.632 27.3H265.95V40.95H281.632V27.3Z" fill="#301C42"/>
<path d="M156.173 40.95H140.491V54.6H156.173V40.95Z" fill="#301C42"/>
<path d="M171.855 40.95H156.173V54.6H171.855V40.95Z" fill="#6B2E62"/>
<path d="M187.538 40.95H171.855V54.6H187.538V40.95Z" fill="#963E6B"/>
<path d="M234.585 40.95H187.538V54.6H234.585V40.95Z" fill="#301C42"/>
<path d="M250.267 40.95H234.585V54.6H250.267V40.95Z" fill="#963E6B"/>
<path d="M265.95 40.95H250.267V54.6H265.95V40.95Z" fill="#6B2E62"/>
<path d="M281.632 40.95H265.95V54.6H281.632V40.95Z" fill="#301C42"/>
<path d="M156.173 54.6H140.491V68.25H156.173V54.6Z" fill="#301C42"/>
<path d="M265.95 54.6H156.173V68.25H265.95V54.6Z" fill="#6B2E62"/>
<path d="M281.632 54.6H265.95V68.25H281.632V54.6Z" fill="#301C42"/>
<path d="M156.173 68.25H140.491V81.9H156.173V68.25Z" fill="#301C42"/>
<path d="M171.855 68.25H156.173V81.9H171.855V68.25Z" fill="#6B2E62"/>
<path d="M187.538 68.25H171.855V81.9H187.538V68.25Z" fill="#DE9469"/>
<path d="M234.585 68.25H187.538V81.9H234.585V68.25Z" fill="#6B2E62"/>
<path d="M250.267 68.25H234.585V81.9H250.267V68.25Z" fill="#DE9469"/>
<path d="M265.95 68.25H250.267V81.9H265.95V68.25Z" fill="#6B2E62"/>
<path d="M281.632 68.25H265.95V81.9H281.632V68.25Z" fill="#301C42"/>
<path d="M140.491 81.9H124.808V95.55H140.491V81.9Z" fill="#301C42"/>
<path d="M171.855 81.9H140.491V95.55H171.855V81.9Z" fill="#6B2E62"/>
<path d="M187.538 81.9H171.855V95.55H187.538V81.9Z" fill="#D26C58"/>
<path d="M234.585 81.9H187.538V95.55H234.585V81.9Z" fill="#6B2E62"/>
<path d="M250.267 81.9H234.585V95.55H250.267V81.9Z" fill="#D26C58"/>
<path d="M281.632 81.9H250.267V95.55H281.632V81.9Z" fill="#6B2E62"/>
<path d="M297.314 81.9H281.632V95.55H297.314V81.9Z" fill="#301C42"/>
<path d="M140.491 95.55H124.808V109.2H140.491V95.55Z" fill="#301C42"/>
<path d="M171.855 95.55H140.491V109.2H171.855V95.55Z" fill="#963E6B"/>
<path d="M203.22 95.55H171.855V109.2H203.22V95.55Z" fill="#6B2E62"/>
<path d="M218.903 95.55H203.22V109.2H218.903V95.55Z" fill="#B74A62"/>
<path d="M250.267 95.55H218.903V109.2H250.267V95.55Z" fill="#6B2E62"/>
<path d="M281.632 95.55H250.267V109.2H281.632V95.55Z" fill="#963E6B"/>
<path d="M297.314 95.55H281.632V109.2H297.314V95.55Z" fill="#301C42"/>
<path d="M156.173 109.2H140.491V122.85H156.173V109.2Z" fill="#301C42"/>
<path d="M171.855 109.2H156.173V122.85H171.855V109.2Z" fill="#45214D"/>
<path d="M187.538 109.2H171.855V122.85H187.538V109.2Z" fill="#6B2E62"/>
<path d="M203.22 109.2H187.538V122.85H203.22V109.2Z" fill="#963E6B"/>
<path d="M218.903 109.2H203.22V122.85H218.903V109.2Z" fill="#6B2E62"/>
<path d="M234.585 109.2H218.903V122.85H234.585V109.2Z" fill="#963E6B"/>
<path d="M250.267 109.2H234.585V122.85H250.267V109.2Z" fill="#6B2E62"/>
<path d="M265.95 109.2H250.267V122.85H265.95V109.2Z" fill="#45214D"/>
<path d="M281.632 109.2H265.95V122.85H281.632V109.2Z" fill="#301C42"/>
<path d="M250.267 122.85H171.855V136.5H250.267V122.85Z" fill="#301C42"/>
<path d="M109.126 136.5H62.079V150.15H109.126V136.5Z" fill="#301C42"/>
<path d="M187.538 136.5H171.855V150.15H187.538V136.5Z" fill="#301C42"/>
<path d="M218.903 136.5H187.538V150.15H218.903V136.5Z" fill="#45214D"/>
<path d="M234.585 136.5H218.903V150.15H234.585V136.5Z" fill="#301C42"/>
<path d="M62.079 150.15H46.3966V163.8H62.079V150.15Z" fill="#301C42"/>
<path d="M93.4437 150.15H62.079V163.8H93.4437V150.15Z" fill="#612A5A"/>
<path d="M109.126 150.15H93.4437V163.8H109.126V150.15Z" fill="#45214D"/>
<path d="M124.808 150.15H109.126V163.8H124.808V150.15Z" fill="#301C42"/>
<path d="M171.855 150.15H156.173V163.8H171.855V150.15Z" fill="#301C42"/>
<path d="M187.538 150.15H171.855V163.8H187.538V150.15Z" fill="#612A5A"/>
<path d="M234.585 150.15H187.538V163.8H234.585V150.15Z" fill="#45214D"/>
<path d="M250.267 150.15H234.585V163.8H250.267V150.15Z" fill="#301C42"/>
<path d="M46.3966 163.8H30.7143V177.45H46.3966V163.8Z" fill="#301C42"/>
<path d="M62.079 163.8H46.3966V177.45H62.079V163.8Z" fill="#612A5A"/>
<path d="M77.7613 163.8H62.079V177.45H77.7613V163.8Z" fill="#45214D"/>
<path d="M109.126 163.8H77.7613V177.45H109.126V163.8Z" fill="#301C42"/>
<path d="M156.173 163.8H140.491V177.45H156.173V163.8Z" fill="#301C42"/>
<path d="M234.585 163.8H156.173V177.45H234.585V163.8Z" fill="#612A5A"/>
<path d="M250.267 163.8H234.585V177.45H250.267V163.8Z" fill="#301C42"/>
<path d="M46.3966 177.45H30.7143V191.1H46.3966V177.45Z" fill="#301C42"/>
<path d="M62.079 177.45H46.3966V191.1H62.079V177.45Z" fill="#612A5A"/>
<path d="M77.7613 177.45H62.079V191.1H77.7613V177.45Z" fill="#301C42"/>
<path d="M156.173 177.45H140.491V191.1H156.173V177.45Z" fill="#301C42"/>
<path d="M234.585 177.45H156.173V191.1H234.585V177.45Z" fill="#612A5A"/>
<path d="M250.267 177.45H234.585V191.1H250.267V177.45Z" fill="#301C42"/>
<path d="M46.3966 191.1H30.7143V204.75H46.3966V191.1Z" fill="#301C42"/>
<path d="M62.079 191.1H46.3966V204.75H62.079V191.1Z" fill="#612A5A"/>
<path d="M77.7613 191.1H62.079V204.75H77.7613V191.1Z" fill="#301C42"/>
<path d="M140.491 191.1H124.808V204.75H140.491V191.1Z" fill="#301C42"/>
<path d="M234.585 191.1H140.491V204.75H234.585V191.1Z" fill="#612A5A"/>
<path d="M250.267 191.1H234.585V204.75H250.267V191.1Z" fill="#301C42"/>
<path d="M46.3966 204.75H30.7143V218.4H46.3966V204.75Z" fill="#301C42"/>
<path d="M62.079 204.75H46.3966V218.4H62.079V204.75Z" fill="#612A5A"/>
<path d="M77.7613 204.75H62.079V218.4H77.7613V204.75Z" fill="#301C42"/>
<path d="M124.808 204.75H109.126V218.4H124.808V204.75Z" fill="#301C42"/>
<path d="M218.903 204.75H124.808V218.4H218.903V204.75Z" fill="#612A5A"/>
<path d="M250.267 204.75H218.903V218.4H250.267V204.75Z" fill="#301C42"/>
<path d="M46.3966 218.4H30.7143V232.05H46.3966V218.4Z" fill="#301C42"/>
<path d="M62.079 218.4H46.3966V232.05H62.079V218.4Z" fill="#612A5A"/>
<path d="M77.7613 218.4H62.079V232.05H77.7613V218.4Z" fill="#301C42"/>
<path d="M124.808 218.4H109.126V232.05H124.808V218.4Z" fill="#301C42"/>
<path d="M203.22 218.4H124.808V232.05H203.22V218.4Z" fill="#612A5A"/>
<path d="M218.903 218.4H203.22V232.05H218.903V218.4Z" fill="#301C42"/>
<path d="M234.585 218.4H218.903V232.05H234.585V218.4Z" fill="#45214D"/>
<path d="M250.267 218.4H234.585V232.05H250.267V218.4Z" fill="#301C42"/>
<path d="M46.3966 232.05H30.7143V245.7H46.3966V232.05Z" fill="#301C42"/>
<path d="M77.7613 232.05H46.3966V245.7H77.7613V232.05Z" fill="#612A5A"/>
<path d="M124.808 232.05H77.7613V245.7H124.808V232.05Z" fill="#301C42"/>
<path d="M156.173 232.05H124.808V245.7H156.173V232.05Z" fill="#612A5A"/>
<path d="M171.855 232.05H156.173V245.7H171.855V232.05Z" fill="#301C42"/>
<path d="M203.22 232.05H171.855V245.7H203.22V232.05Z" fill="#612A5A"/>
<path d="M218.903 232.05H203.22V245.7H218.903V232.05Z" fill="#301C42"/>
<path d="M234.585 232.05H218.903V245.7H234.585V232.05Z" fill="#45214D"/>
<path d="M250.267 232.05H234.585V245.7H250.267V232.05Z" fill="#301C42"/>
<path d="M62.079 245.7H46.3966V259.35H62.079V245.7Z" fill="#45214D"/>
<path d="M93.4437 245.7H62.079V259.35H93.4437V245.7Z" fill="#612A5A"/>
<path d="M124.808 245.7H93.4437V259.35H124.808V245.7Z" fill="#45214D"/>
<path d="M140.491 245.7H124.808V259.35H140.491V245.7Z" fill="#612A5A"/>
<path d="M156.173 245.7H140.491V259.35H156.173V245.7Z" fill="#45214D"/>
<path d="M171.855 245.7H156.173V259.35H171.855V245.7Z" fill="#301C42"/>
<path d="M203.22 245.7H171.855V259.35H203.22V245.7Z" fill="#612A5A"/>
<path d="M218.903 245.7H203.22V259.35H218.903V245.7Z" fill="#301C42"/>
<path d="M234.585 245.7H218.903V259.35H234.585V245.7Z" fill="#45214D"/>
<path d="M250.267 245.7H234.585V259.35H250.267V245.7Z" fill="#301C42"/>
<path d="M124.808 259.35H62.079V273H124.808V259.35Z" fill="#301C42"/>
<path d="M140.491 259.35H124.808V273H140.491V259.35Z" fill="#45214D"/>
<path d="M234.585 259.35H140.491V273H234.585V259.35Z" fill="#301C42"/>
<path d="M250.267 259.35H234.585V273H250.267V259.35Z" fill="#45214D"/>
</svg>