<svg width="143" height="143" viewBox="0 0 143 143" fill="none"
            xmlns="http://www.w3.org/2000/svg">
            <path
                d="M96.0275 53.7581C92.8755 53.7581 90.314 56.3346 90.314 59.5159C90.314 62.6969 92.8755 65.2754 96.0275 65.2754C99.1756 65.2754 101.738 62.6969 101.738 59.5159C101.738 56.3341 99.1759 53.7581 96.0275 53.7581Z"
                fill="white" />
            <path
                d="M46.7161 53.7581C43.5642 53.7581 41.0026 56.3346 41.0026 59.5159C41.0026 62.6969 43.5642 65.2754 46.7161 65.2754C49.8642 65.2754 52.4263 62.6969 52.4263 59.5159C52.4263 56.3341 49.8645 53.7581 46.7161 53.7581Z"
                fill="white" />
            <path
                d="M121.829 20.8074C108.35 7.38958 90.4294 0 71.37 0C52.3106 0 34.3903 7.38958 20.9114 20.8074C7.42638 34.2308 0 52.0798 0 71.0664V142.133H142.74V71.0664C142.74 52.0798 135.314 34.2308 121.829 20.8074ZM113.126 132.824H29.6138V61.4267C29.6138 50.1034 38.8777 40.8911 50.2646 40.8911C57.2103 40.8911 63.652 44.3378 67.4954 50.1112L71.37 55.9309L75.2443 50.1112C79.0877 44.3381 85.5294 40.8911 92.4752 40.8911C103.862 40.8911 113.126 50.1034 113.126 61.4267V132.824Z"
                fill="white" />
            <path d="M53.2448 87.1932L71.37 115.844L89.4952 87.1932L71.37 70.9671L53.2448 87.1932Z" fill="white" />
        </svg>