<svg xmlns="http://www.w3.org/2000/svg" width="12" height="12" viewBox="0 0 12 12" fill="none">
  <path d="M8.07293 4.53869C7.80794 4.53869 7.5926 4.75622 7.5926 5.02481C7.5926 5.29338 7.80794 5.51108 8.07293 5.51108C8.33758 5.51108 8.55298 5.29338 8.55298 5.02481C8.55298 4.75618 8.33761 4.53869 8.07293 4.53869Z" fill="white" />
  <path d="M3.92738 4.53869C3.66239 4.53869 3.44705 4.75622 3.44705 5.02481C3.44705 5.29338 3.66239 5.51108 3.92738 5.51108C4.19203 5.51108 4.40742 5.29338 4.40742 5.02481C4.40742 4.75618 4.19206 4.53869 3.92738 4.53869Z" fill="white" />
  <path d="M10.242 1.75673C9.10884 0.623888 7.6023 0 6 0C4.3977 0 2.89116 0.623888 1.758 1.75673C0.624328 2.89004 0 4.39699 0 6V12H12V6C12 4.39699 11.3757 2.89004 10.242 1.75673ZM9.5104 11.2141H2.4896V5.18614C2.4896 4.23014 3.26841 3.45236 4.22569 3.45236C4.80961 3.45236 5.35116 3.74335 5.67427 4.23079L6 4.72214L6.32571 4.23079C6.64882 3.74338 7.19037 3.45236 7.77429 3.45236C8.73157 3.45236 9.51038 4.23014 9.51038 5.18614V11.2141H9.5104Z" fill="white" />
  <path d="M4.47623 7.36156L6 9.78052L7.52376 7.36156L6 5.99162L4.47623 7.36156Z" fill="white" />
</svg>